<svg xmlns="http://www.w3.org/2000/svg" width="1200" height="630" viewBox="0 0 1200 630" role="img" aria-labelledby="title desc">
  <title id="title">Vishwas K Portfolio Preview</title>
  <desc id="desc">Dark premium portfolio preview with analytics chart accents.</desc>
  <defs>
    <linearGradient id="bg" x1="0" y1="0" x2="1" y2="1">
      <stop offset="0" stop-color="#050505"/>
      <stop offset=".55" stop-color="#07111f"/>
      <stop offset="1" stop-color="#050505"/>
    </linearGradient>
    <linearGradient id="line" x1="0" y1="0" x2="1" y2="0">
      <stop offset="0" stop-color="#0A84FF"/>
      <stop offset="1" stop-color="#64D2FF"/>
    </linearGradient>
  </defs>
  <rect width="1200" height="630" fill="url(#bg)"/>
  <circle cx="980" cy="80" r="230" fill="#64D2FF" opacity=".12"/>
  <circle cx="155" cy="510" r="280" fill="#0A84FF" opacity=".16"/>
  <rect x="96" y="92" width="1008" height="446" rx="34" fill="rgba(255,255,255,.06)" stroke="rgba(255,255,255,.16)"/>
  <text x="144" y="220" fill="#FFFFFF" font-family="Inter, Arial, sans-serif" font-size="82" font-weight="800">Vishwas K</text>
  <text x="148" y="286" fill="#64D2FF" font-family="Inter, Arial, sans-serif" font-size="34" font-weight="700">Data Analyst Portfolio</text>
  <text x="148" y="352" fill="#A1A1AA" font-family="Inter, Arial, sans-serif" font-size="25">Analytics, visualization, machine learning, and Python projects.</text>
  <polyline points="742,402 812,348 872,370 938,294 1030,252" fill="none" stroke="url(#line)" stroke-width="13" stroke-linecap="round" stroke-linejoin="round"/>
  <rect x="734" y="392" width="34" height="64" rx="10" fill="#64D2FF"/>
  <rect x="798" y="330" width="34" height="126" rx="10" fill="#0A84FF"/>
  <rect x="862" y="366" width="34" height="90" rx="10" fill="#64D2FF"/>
  <rect x="926" y="284" width="34" height="172" rx="10" fill="#0A84FF"/>
  <rect x="990" y="236" width="34" height="220" rx="10" fill="#64D2FF"/>
</svg>
